Coordinates
version=1
nRows=13
nColumns=38
inDegrees=no

Units are S.I. units (second, meters, Newtons, ...)
If the header above contains a line with 'inDegrees', this indicates whether rotational values are in degrees (yes) or radians (no).

endheader
time	pelvis_tilt	pelvis_list	pelvis_rotation	pelvis_tx	pelvis_ty	pelvis_tz	hip_flexion_r	hip_adduction_r	hip_rotation_r	knee_angle_r	ankle_angle_r	subtalar_angle_r	mtp_angle_r	hip_flexion_l	hip_adduction_l	hip_rotation_l	knee_angle_l	ankle_angle_l	subtalar_angle_l	mtp_angle_l	lumbar_extension	lumbar_bending	lumbar_rotation	arm_flex_r	arm_add_r	arm_rot_r	elbow_flex_r	pro_sup_r	wrist_flex_r	wrist_dev_r	arm_flex_l	arm_add_l	arm_rot_l	elbow_flex_l	pro_sup_l	wrist_flex_l	wrist_dev_l
20.85	2.68775	1.46474	-1.16779	0.789105	-0.643148	0.973226	-0.18946	0.0782087	-0.21366	0.261648	0.26406	0	0	0.108073	-0.0728617	-0.142894	0.162687	-0.0742676	0	0	-0.197028	0.190325	0.0812443	0.397869	-0.13167	0.443666	1.52275	1.5708	0	0	0.576341	-0.219275	0.140221	1.1472	0.783194	0	0
20.86	2.66321	1.46043	-1.15419	0.790142	-0.640923	0.972755	-0.193275	0.0806055	-0.210519	0.265677	0.267393	0	0	0.0994298	-0.0755625	-0.112168	0.163225	-0.0675882	0	0	-0.197693	0.193496	0.0925992	0.395842	-0.127788	0.442983	1.51837	1.5708	0	0	0.576255	-0.218738	0.139584	1.14476	0.78271	0	0
20.87	2.67426	1.46154	-1.16715	0.790335	-0.640061	0.972603	-0.192528	0.0791909	-0.208691	0.267182	0.267623	0	0	0.0981574	-0.0739132	-0.113436	0.162245	-0.0664711	0	0	-0.196861	0.191726	0.0950381	0.396017	-0.122353	0.439667	1.51165	1.5708	0	0	0.57951	-0.218518	0.141434	1.1414	0.781234	0	0
20.88	2.58803	1.44962	-1.08403	0.790596	-0.63961	0.974147	-0.18794	0.0834075	-0.260114	0.291839	0.270469	0	0	0.0894258	-0.089999	-0.116253	0.16098	-0.0653188	0	0	-0.206791	0.207927	0.101483	0.398936	-0.120759	0.436792	1.50571	1.5708	0	0	0.582617	-0.212913	0.137771	1.13646	0.780735	0	0
20.89	2.74323	1.47317	-1.23111	0.789839	-0.63965	0.97229	-0.178443	0.0683861	-0.214058	0.277488	0.270873	0	0	0.107456	-0.0644254	-0.150991	0.160055	-0.0689698	0	0	-0.189317	0.180769	0.0906974	0.397398	-0.110141	0.427969	1.49668	1.5708	0	0	0.587857	-0.215538	0.141561	1.13497	0.777453	0	0
20.9	2.67033	1.45847	-1.16605	0.790916	-0.637389	0.972987	-0.19855	0.0889655	-0.181996	0.262054	0.256308	0	0	0.0890561	-0.0763139	-0.115425	0.157745	-0.0634095	0	0	-0.199108	0.193122	0.10031	0.396551	-0.107504	0.423666	1.49336	1.5708	0	0	0.587233	-0.212564	0.140082	1.13601	0.776729	0	0
20.91	2.68564	1.46012	-1.18178	0.791141	-0.636473	0.972738	-0.196896	0.08764	-0.179284	0.264632	0.256787	0	0	0.0881075	-0.0740707	-0.115496	0.156356	-0.0623084	0	0	-0.197339	0.190062	0.100673	0.396367	-0.102294	0.417384	1.48734	1.5708	0	0	0.588588	-0.21113	0.139188	1.13811	0.776738	0	0
20.92	2.63534	1.45647	-1.12483	0.790518	-0.637443	0.974335	-0.182437	0.0864338	-0.235123	0.293045	0.26024	0	0	0.0899356	-0.0840023	-0.150708	0.155185	-0.0659329	0	0	-0.203234	0.198898	0.0962898	0.401373	-0.0993041	0.411367	1.4783	1.5708	0	0	0.592965	-0.204098	0.131099	1.13679	0.777594	0	0
20.93	2.72413	1.46275	-1.22018	0.791599	-0.634688	0.972265	-0.194653	0.0843496	-0.176139	0.269886	0.259153	0	0	0.0853831	-0.0692892	-0.115947	0.153324	-0.0603298	0	0	-0.194685	0.182814	0.100473	0.396822	-0.0920154	0.404982	1.47265	1.5708	0	0	0.591323	-0.206151	0.13395	1.14433	0.779514	0	0
20.94	2.74571	1.46383	-1.24109	0.791819	-0.633848	0.971999	-0.193462	0.0824355	-0.174947	0.27343	0.260873	0	0	0.0841679	-0.0667327	-0.115622	0.152479	-0.0593323	0	0	-0.193616	0.178864	0.0996904	0.397686	-0.0883093	0.399814	1.46638	1.5708	0	0	0.593052	-0.203463	0.13153	1.147	0.780144	0	0
20.95	2.76548	1.46435	-1.25985	0.792085	-0.633021	0.971781	-0.193032	0.0809272	-0.174888	0.276385	0.262611	0	0	0.0825646	-0.064609	-0.115182	0.151553	-0.0580029	0	0	-0.193008	0.17522	0.0985381	0.398684	-0.0850248	0.394346	1.46133	1.5708	0	0	0.595023	-0.200432	0.128436	1.14894	0.780893	0	0
20.96	2.78368	1.46433	-1.27681	0.79238	-0.632167	0.971624	-0.193742	0.0797991	-0.175428	0.27812	0.263957	0	0	0.0804194	-0.0628225	-0.11478	0.150182	-0.0569081	0	0	-0.192903	0.171735	0.0973113	0.399656	-0.0827283	0.389086	1.45889	1.5708	0	0	0.597804	-0.196821	0.125452	1.14915	0.782012	0	0
20.97	2.80502	1.46458	-1.297	0.792713	-0.631315	0.971434	-0.194127	0.0781662	-0.175978	0.280288	0.26568	0	0	0.0785577	-0.0606395	-0.11421	0.149032	-0.0561959	0	0	-0.192536	0.167502	0.0964212	0.400685	-0.0814153	0.384355	1.45824	1.5708	0	0	0.600985	-0.193241	0.122856	1.14878	0.783402	0	0
